<svg width="180" height="180" viewBox="0 0 180 180" fill="none" xmlns="http://www.w3.org/2000/svg">
  <style>
    @media (prefers-color-scheme: light) {
      .bg { fill: #0a0a0a; }
      .fg { fill: #ffffff; }
    }
    @media (prefers-color-scheme: dark) {
      .bg { fill: #ffffff; }
      .fg { fill: #0a0a0a; }
    }
  </style>
  <rect class="bg" width="180" height="180" rx="37" />
  <g transform="translate(90,88)">
    <!-- C letter -->
    <path class="fg" d="M-55,-38 C-55,-52 -43,-64 -28,-64 L-4,-64 L-4,-46 L-26,-46 C-30,-46 -33,-43 -33,-38 L-33,38 C-33,43 -30,46 -26,46 L-4,46 L-4,64 L-28,64 C-43,64 -55,52 -55,38 Z"/>
    <!-- B letter -->
    <path class="fg" d="M55,-38 C55,-52 43,-64 28,-64 L8,-64 L8,64 L28,64 C43,64 55,52 55,38 L55,20 C55,11 49,3 40,0 C49,-3 55,-11 55,-20 Z M26,-46 L28,-46 C33,-46 33,-42 33,-38 L33,-20 C33,-16 33,-12 28,-12 L26,-12 Z M26,12 L28,12 C33,12 33,16 33,20 L33,38 C33,42 33,46 28,46 L26,46 Z"/>
  </g>
</svg>
